<?xml version="1.0" encoding="UTF-8" standalone="no"?>
<!-- Generator: Adobe Illustrator 22.0.0, SVG Export Plug-In . SVG Version: 6.00 Build 0)  -->

<svg
   xmlns:dc="http://purl.org/dc/elements/1.1/"
   xmlns:cc="http://creativecommons.org/ns#"
   xmlns:rdf="http://www.w3.org/1999/02/22-rdf-syntax-ns#"
   xmlns:svg="http://www.w3.org/2000/svg"
   xmlns="http://www.w3.org/2000/svg"
   xmlns:sodipodi="http://sodipodi.sourceforge.net/DTD/sodipodi-0.dtd"
   xmlns:inkscape="http://www.inkscape.org/namespaces/inkscape"
   version="1.1"
   id="Layer_1"
   x="0px"
   y="0px"
   viewBox="0 0 313.20003 329.29997"
   xml:space="preserve"
   sodipodi:docname="logotype_vidrodzhennia1.svg"
   width="313.20001"
   height="329.29999"
   inkscape:version="0.92.3 (d244b95, 2018-08-02)"><metadata
   id="metadata75"><rdf:RDF><cc:Work
       rdf:about=""><dc:format>image/svg+xml</dc:format><dc:type
         rdf:resource="http://purl.org/dc/dcmitype/StillImage" /><dc:title /></cc:Work></rdf:RDF></metadata><defs
   id="defs73">
	
	
	
	
	
	
	
	
	
	
	
	
	
	
	
	
	
	
	
	
	
	
	
	
	
	
	
	
	
	
	
	
</defs><sodipodi:namedview
   pagecolor="#ffffff"
   bordercolor="#666666"
   borderopacity="1"
   objecttolerance="10"
   gridtolerance="10"
   guidetolerance="10"
   inkscape:pageopacity="0"
   inkscape:pageshadow="2"
   inkscape:window-width="1627"
   inkscape:window-height="1026"
   id="namedview71"
   showgrid="false"
   fit-margin-top="0"
   fit-margin-left="0"
   fit-margin-right="0"
   fit-margin-bottom="0"
   inkscape:zoom="1.5293702"
   inkscape:cx="38.843007"
   inkscape:cy="163.44999"
   inkscape:window-x="53"
   inkscape:window-y="24"
   inkscape:window-maximized="1"
   inkscape:current-layer="Layer_1" />
<style
   type="text/css"
   id="style2">
	.st0{fill:#2C347D;}
</style>
<polygon
   style="fill:#ffffff;fill-opacity:1"
   id="polygon4"
   points="157.7,317.8 161.9,317.8 168,342.4 164.6,342.4 159.6,322.4 159.4,322.4 152.2,343.1 149.7,343.1 142.4,322.4 142.2,322.4 137.2,342.4 133.8,342.4 139.9,317.8 144.1,317.8 150.9,337.2 151.1,337.2 "
   class="st0"
   transform="translate(-133.8,-117.6)" /><rect
   style="fill:#ffffff;fill-opacity:1"
   id="rect6"
   height="24.6"
   width="3.4000001"
   class="st0"
   y="200.19998"
   x="38.500004" /><polygon
   style="fill:#ffffff;fill-opacity:1"
   id="polygon8"
   points="209.1,317.8 213.3,317.8 202.3,330.2 214.2,342.4 209.9,342.4 198.7,330.9 198.5,330.9 198.5,342.4 195.2,342.4 195.2,330.9 195,330.9 183.9,342.4 179.6,342.4 191.5,330.2 180.5,317.8 184.6,317.8 195,330.1 195.2,330.1 195.2,317.8 198.5,317.8 198.5,330.1 198.7,330.1 "
   class="st0"
   transform="translate(-133.8,-117.6)" /><polygon
   style="fill:#ffffff;fill-opacity:1"
   id="polygon10"
   points="241.8,317.8 241.8,342.4 238.4,342.4 238.4,331.5 221.5,331.5 221.5,342.4 218.1,342.4 218.1,317.8 221.5,317.8 221.5,328.5 238.4,328.5 238.4,317.8 "
   class="st0"
   transform="translate(-133.8,-117.6)" /><path
   style="fill:#ffffff;fill-opacity:1"
   inkscape:connector-curvature="0"
   id="path12"
   d="m 119.4,216 h 10.5 l -5.2,-12.4 h -0.2 z m 11.7,2.9 h -12.9 l -2.5,6 h -3.5 l 10.5,-24.6 h 3.8 l 10.8,24.6 h -3.6 z"
   class="st0" /><path
   style="fill:#ffffff;fill-opacity:1"
   inkscape:connector-curvature="0"
   id="path14"
   d="m 144.9,212.6 h 5.4 c 3.7,0 7.6,-1.1 7.6,-4.8 0,-3.7 -4,-4.7 -7.3,-4.7 h -5.7 z m -3.4,-12.4 h 9 c 5.8,0 11,2.3 11,7.6 0,5.3 -5.4,7.8 -11.2,7.8 h -5.4 v 9.3 h -3.4 z"
   class="st0" /><path
   style="fill:#ffffff;fill-opacity:1"
   inkscape:connector-curvature="0"
   id="path16"
   d="m 168.6,212.5 c 0,5.8 4.2,10.1 10.5,10.1 6.3,0 10.4,-4.3 10.4,-10.1 0,-6.4 -4.8,-10.2 -10.4,-10.2 -5.7,0.1 -10.5,3.8 -10.5,10.2 m 24.4,0.1 c 0,8 -6.6,12.9 -14,12.9 -7.5,0 -14,-4.9 -14,-12.9 0,-7 5.7,-13 14,-13 8.4,-0.1 14,6 14,13"
   class="st0" /><path
   style="fill:#ffffff;fill-opacity:1"
   inkscape:connector-curvature="0"
   id="path18"
   d="m 215.5,203 h -10.2 l -1.3,13.4 c -0.3,2.7 -1.1,4.4 -2.2,5.5 h 13.7 z m -19.3,18.8 c 2.1,0 3.8,-1 4.3,-5.6 l 1.7,-16 h 16.6 v 21.6 h 3.4 l -0.1,7.7 h -3.3 v -4.7 h -20.2 v 4.7 h -3.3 l -0.1,-7.7 z"
   class="st0" /><polygon
   style="fill:#ffffff;fill-opacity:1"
   id="polygon20"
   points="384.3,317.8 384.3,342.4 380.9,342.4 380.9,331.5 364,331.5 364,342.4 360.5,342.4 360.5,317.8 364,317.8 364,328.5 380.9,328.5 380.9,317.8 "
   class="st0"
   transform="translate(-133.8,-117.6)" /><polygon
   style="fill:#ffffff;fill-opacity:1"
   id="polygon22"
   points="393.9,342.4 390.3,342.4 390.3,317.8 393.7,317.8 393.7,338.1 393.9,338.1 412.1,317.8 415.6,317.8 415.6,342.4 412.3,342.4 412.3,322.1 412.1,322.1 "
   class="st0"
   transform="translate(-133.8,-117.6)" /><path
   style="fill:#ffffff;fill-opacity:1"
   inkscape:connector-curvature="0"
   id="path24"
   d="m 303.8,193.8 h 2 c 0.1,3 -2.2,5 -5.4,5 -3.1,0 -5.5,-2 -5.4,-5 h 2.1 c 0,0.6 0.6,2.6 3.3,2.6 2.7,0 3.4,-1.9 3.4,-2.6 m 9.4,31 h -3.3 v -20.3 h -0.2 l -18.2,20.3 h -3.6 v -24.6 h 3.3 v 20.3 h 0.2 l 18.2,-20.3 h 3.5 v 24.6 z"
   class="st0" /><path
   style="fill:#ffffff;fill-opacity:1"
   inkscape:connector-curvature="0"
   id="path26"
   d="m 16.6,254.7 v 15.5 c 5.4,-0.5 9.6,-3.2 9.6,-7.6 0,-4.8 -4.5,-7.5 -9.6,-7.9 m -3.4,15.4 v -15.5 c -5.7,0.5 -9.6,3.3 -9.6,7.9 0,4.6 4.4,7.2 9.6,7.6 m 0,7 v -4 C 6.7,272.6 0.1,269 0.1,262.5 0.1,256 6.7,252.3 13.2,251.7 v -3.6 h 3.4 v 3.5 c 7.3,0.6 13.1,4.8 13.1,10.8 0,5.9 -5.8,10 -13.1,10.6 v 4 h -3.4 z"
   class="st0" /><path
   style="fill:#ffffff;fill-opacity:1"
   inkscape:connector-curvature="0"
   id="path28"
   d="m 37,262.4 c 0,5.8 4.2,10.1 10.5,10.1 6.3,0 10.4,-4.3 10.4,-10.1 0,-6.4 -4.8,-10.2 -10.4,-10.2 -5.6,0 -10.5,3.8 -10.5,10.2 m 24.5,0 c 0,8 -6.6,12.9 -14,12.9 -7.5,0 -14,-4.9 -14,-12.9 0,-7 5.7,-13 14,-13 8.3,0 14,6.1 14,13"
   class="st0" /><polygon
   style="fill:#ffffff;fill-opacity:1"
   id="polygon30"
   points="223.8,367.7 223.8,392.3 220.4,392.3 220.4,381.3 203.5,381.3 203.5,392.3 200.1,392.3 200.1,367.7 203.5,367.7 203.5,378.4 220.4,378.4 220.4,367.7 "
   class="st0"
   transform="translate(-133.8,-117.6)" /><path
   style="fill:#ffffff;fill-opacity:1"
   inkscape:connector-curvature="0"
   id="path32"
   d="m 114.7,252.9 h -10.2 l -1.3,13.4 c -0.3,2.7 -1.1,4.4 -2.2,5.5 h 13.7 z m -19.3,18.8 c 2.1,0 3.8,-1 4.3,-5.6 l 1.7,-16 H 118 v 21.6 h 3.4 l -0.1,7.7 H 118 v -4.7 H 97.8 v 4.7 h -3.3 l -0.1,-7.7 z"
   class="st0" /><path
   style="fill:#ffffff;fill-opacity:1"
   inkscape:connector-curvature="0"
   id="path34"
   d="m 4.8,321.9 h 5.6 c 4,0 7.1,-1.3 7.1,-4.1 0,-2.9 -3.7,-4 -6.9,-4 H 4.9 v 8.1 z m 0,-11.1 h 5 c 2.7,0 6.9,-0.9 6.9,-4 0,-3 -3.6,-4 -7,-4 H 4.8 Z M 1.5,300 h 8.2 c 5.6,0 10.5,2.2 10.5,6.6 0,3.3 -3.3,5 -4.6,5.4 v 0.2 c 1.4,0.3 5.4,1.7 5.4,5.7 0,4.4 -4.9,6.8 -10.7,6.8 H 1.6 V 300 Z"
   class="st0" /><rect
   style="fill:#ffffff;fill-opacity:1"
   id="rect36"
   height="24.6"
   width="3.4000001"
   class="st0"
   y="300"
   x="26.099995" /><path
   style="fill:#ffffff;fill-opacity:1"
   inkscape:connector-curvature="0"
   id="path38"
   d="M 54.1,302.8 H 43.9 l -1.3,13.4 c -0.3,2.7 -1.1,4.4 -2.2,5.5 h 13.7 z m -19.3,18.8 c 2.1,0 3.8,-1 4.3,-5.6 l 1.7,-16 h 16.6 v 21.6 h 3.4 l -0.1,7.7 h -3.3 v -4.7 H 37.2 v 4.7 h -3.3 l -0.1,-7.7 z"
   class="st0" /><path
   style="fill:#ffffff;fill-opacity:1"
   inkscape:connector-curvature="0"
   id="path40"
   d="m 68.7,312.4 h 5.4 c 3.7,0 7.6,-1.1 7.6,-4.8 0,-3.7 -4,-4.7 -7.3,-4.7 H 68.7 Z M 65.3,300 h 9 c 5.8,0 11,2.3 11,7.6 0,5.3 -5.4,7.8 -11.2,7.8 h -5.4 v 9.3 h -3.4 z"
   class="st0" /><path
   style="fill:#ffffff;fill-opacity:1"
   inkscape:connector-curvature="0"
   id="path42"
   d="m 92.4,312.3 c 0,5.8 4.2,10.1 10.5,10.1 6.3,0 10.4,-4.3 10.4,-10.1 0,-6.4 -4.8,-10.2 -10.4,-10.2 -5.6,0 -10.5,3.8 -10.5,10.2 m 24.5,0 c 0,8 -6.6,12.9 -14,12.9 -7.5,0 -14,-4.9 -14,-12.9 0,-7 5.7,-13 14,-13 8.3,0 14,6 14,13"
   class="st0" /><path
   style="fill:#ffffff;fill-opacity:1"
   inkscape:connector-curvature="0"
   id="path44"
   d="m 139.3,302.8 h -10.2 l -1.3,13.4 c -0.3,2.7 -1.1,4.4 -2.2,5.5 h 13.7 z m -19.2,18.8 c 2.1,0 3.8,-1 4.3,-5.6 l 1.7,-16 h 16.6 v 21.6 h 3.4 l -0.1,7.7 h -3.3 v -4.7 h -20.2 v 4.7 h -3.3 l -0.1,-7.7 z"
   class="st0" /><polygon
   style="fill:#ffffff;fill-opacity:1"
   id="polygon46"
   points="312.8,417.6 316.9,417.6 305.9,430 317.8,442.2 313.5,442.2 302.4,430.7 302.2,430.7 302.2,442.2 298.9,442.2 298.9,430.7 298.7,430.7 287.5,442.2 283.2,442.2 295.1,430 284.1,417.6 288.3,417.6 298.7,429.8 298.9,429.8 298.9,417.6 302.2,417.6 302.2,429.8 302.4,429.8 "
   class="st0"
   transform="translate(-133.8,-117.6)" /><polygon
   style="fill:#ffffff;fill-opacity:1"
   id="polygon48"
   points="325.1,428.2 340.8,428.2 340.8,431 325.1,431 325.1,439.2 341.9,439.2 341.9,442.2 321.8,442.2 321.8,417.6 341.5,417.6 341.5,420.5 325.1,420.5 "
   class="st0"
   transform="translate(-133.8,-117.6)" /><polygon
   style="fill:#ffffff;fill-opacity:1"
   id="polygon50"
   points="370.1,417.6 370.1,442.2 366.7,442.2 366.7,431.2 349.8,431.2 349.8,442.2 346.4,442.2 346.4,417.6 349.8,417.6 349.8,428.3 366.7,428.3 366.7,417.6 "
   class="st0"
   transform="translate(-133.8,-117.6)" /><polygon
   style="fill:#ffffff;fill-opacity:1"
   id="polygon52"
   points="399.9,417.6 399.9,442.2 396.5,442.2 396.5,431.2 379.6,431.2 379.6,442.2 376.2,442.2 376.2,417.6 379.6,417.6 379.6,428.3 396.5,428.3 396.5,417.6 "
   class="st0"
   transform="translate(-133.8,-117.6)" /><path
   style="fill:#ffffff;fill-opacity:1"
   inkscape:connector-curvature="0"
   id="path54"
   d="M 288.9,302.8 H 283 c -3.2,0 -6.8,1.1 -6.8,4.1 0,2.8 3.2,4.1 6.8,4.1 h 6 v -8.2 z m 3.3,21.8 h -3.4 V 314 h -5.5 c -4.5,5.7 -8.8,10.6 -8.8,10.6 h -4.3 c 0,0 5.2,-5.6 9.6,-11 -3.8,-0.8 -7.1,-3 -7.1,-6.7 0,-4.8 5.5,-6.9 10.3,-6.9 h 9.2 z"
   class="st0" /><path
   style="fill:#ffffff;fill-opacity:1"
   inkscape:connector-curvature="0"
   id="path56"
   d="m 4.9,147.2 h 34 V 4.8 h -34 z m 37.4,3.4 H 1.4 V 1.3 h 40.9 z"
   class="st0" /><path
   style="fill:#ffffff;fill-opacity:1"
   inkscape:connector-curvature="0"
   id="path58"
   d="M 85.8,83.1 C 67.7,83.1 53,97.8 53,115.9 c 0,18.1 14.7,32.8 32.8,32.8 18.1,0 32.8,-14.7 32.8,-32.8 0,-18.1 -14.8,-32.8 -32.8,-32.8 m 0,69 c -20,0 -36.2,-16.2 -36.2,-36.2 0,-20 16.2,-36.2 36.2,-36.2 20,0 36.2,16.2 36.2,36.2 0,20 -16.3,36.2 -36.2,36.2"
   class="st0" /><path
   style="fill:#ffffff;fill-opacity:1"
   inkscape:connector-curvature="0"
   id="path60"
   d="M 85.8,3.4 C 67.7,3.4 53,18.1 53,36.2 53,54.3 67.7,69 85.8,69 103.9,69 118.6,54.3 118.6,36.2 118.6,18.1 103.9,3.4 85.8,3.4 m 0,69 C 65.8,72.4 49.6,56.2 49.6,36.2 49.6,16.2 65.8,0 85.8,0 c 20,0 36.2,16.2 36.2,36.2 0,19.9 -16.3,36.2 -36.2,36.2"
   class="st0" /><path
   style="fill:#ffffff;fill-opacity:1"
   inkscape:connector-curvature="0"
   id="path62"
   d="m 85.8,14.4 c -12,0 -21.8,9.8 -21.8,21.8 0,12 9.8,21.8 21.8,21.8 12,0 21.8,-9.8 21.8,-21.8 C 107.5,24.1 97.8,14.4 85.8,14.4 m 0,46.9 C 71.9,61.3 60.6,50 60.6,36.1 60.6,22.2 71.9,10.9 85.8,10.9 99.7,10.9 111,22.2 111,36.1 111,50 99.7,61.3 85.8,61.3"
   class="st0" /><path
   style="fill:#ffffff;fill-opacity:1"
   inkscape:connector-curvature="0"
   id="path64"
   d="m 85.8,25.8 c -5.7,0 -10.3,4.6 -10.3,10.3 0,5.7 4.6,10.3 10.3,10.3 5.7,0 10.3,-4.6 10.3,-10.3 0,-5.6 -4.6,-10.3 -10.3,-10.3 m 0,24.1 c -7.6,0 -13.7,-6.2 -13.7,-13.7 0,-7.6 6.2,-13.7 13.7,-13.7 7.6,0 13.7,6.2 13.7,13.7 0,7.5 -6.2,13.7 -13.7,13.7"
   class="st0" /><path
   style="fill:#ffffff;fill-opacity:1"
   inkscape:connector-curvature="0"
   id="path66"
   d="m 88.5,36.2 c 0,-1.5 -1.2,-2.8 -2.8,-2.8 -1.5,0 -2.8,1.2 -2.8,2.8 0,1.5 1.2,2.8 2.8,2.8 1.6,-0.1 2.8,-1.3 2.8,-2.8"
   class="st0" />
</svg>