<?xml version="1.0" encoding="UTF-8" standalone="no"?>
<!-- Generator: Adobe Illustrator 22.0.0, SVG Export Plug-In . SVG Version: 6.00 Build 0)  -->

<svg
   xmlns:dc="http://purl.org/dc/elements/1.1/"
   xmlns:cc="http://creativecommons.org/ns#"
   xmlns:rdf="http://www.w3.org/1999/02/22-rdf-syntax-ns#"
   xmlns:svg="http://www.w3.org/2000/svg"
   xmlns="http://www.w3.org/2000/svg"
   xmlns:sodipodi="http://sodipodi.sourceforge.net/DTD/sodipodi-0.dtd"
   xmlns:inkscape="http://www.inkscape.org/namespaces/inkscape"
   version="1.1"
   id="Layer_1"
   x="0px"
   y="0px"
   viewBox="0 0 10 9.9999998"
   xml:space="preserve"
   sodipodi:docname="tline_glyph.svg"
   width="10"
   height="10"
   inkscape:version="0.92.3 (d244b95, 2018-08-02)"><metadata
   id="metadata11"><rdf:RDF><cc:Work
       rdf:about=""><dc:format>image/svg+xml</dc:format><dc:type
         rdf:resource="http://purl.org/dc/dcmitype/StillImage" /><dc:title></dc:title></cc:Work></rdf:RDF></metadata><defs
   id="defs9" /><sodipodi:namedview
   pagecolor="#ffffff"
   bordercolor="#666666"
   borderopacity="1"
   objecttolerance="10"
   gridtolerance="10"
   guidetolerance="10"
   inkscape:pageopacity="0"
   inkscape:pageshadow="2"
   inkscape:window-width="1313"
   inkscape:window-height="744"
   id="namedview7"
   showgrid="false"
   fit-margin-top="0"
   fit-margin-left="0"
   fit-margin-right="0"
   fit-margin-bottom="0"
   inkscape:zoom="61.306198"
   inkscape:cx="-0.75798283"
   inkscape:cy="4.9999963"
   inkscape:window-x="1733"
   inkscape:window-y="24"
   inkscape:window-maximized="1"
   inkscape:current-layer="Layer_1" />
<style
   type="text/css"
   id="style2">
	.st0{fill:#51565F;}
</style>
<path
   class="st0"
   d="m 9.9462857,4.8475575 c -0.07162,-0.07308 -0.143241,-0.07308 -0.214862,-0.03654 0,0 -0.214861,0.146168 -0.465532,0.146168 -0.07162,0 -0.179051,0 -0.250672,-0.03654 0,-0.109626 0,-0.219253 -0.03581,-0.292337 0,-0.182711 -0.03581,-0.365422 -0.10743,-0.548132 0.07162,0 0.179051,-0.03654 0.250671,-0.07308 0.429722,-0.146168 0.537153,-0.584674 0.537153,-0.621216 0,-0.07308 0,-0.146168 -0.07162,-0.18271 -0.07162,-0.03654 -0.143241,-0.03654 -0.214862,0.03654 0,0 -0.179051,0.18271 -0.429722,0.292337 -0.107431,0.03654 -0.179051,0.03654 -0.214861,0.03654 -0.107431,-0.292337 -0.250672,-0.548133 -0.393913,-0.803928 0.07162,-0.03654 0.143241,-0.07308 0.214862,-0.146168 0.322292,-0.292337 0.286481,-0.730842 0.286481,-0.730842 0,-0.07309 -0.07162,-0.146169 -0.143241,-0.146169 -0.07162,0 -0.14324,0.03654 -0.179051,0.109627 0,0 -0.10743,0.255794 -0.286481,0.401963 -0.07162,0.03654 -0.143241,0.07308 -0.179051,0.109626 -0.1790512,-0.219253 -0.4297232,-0.438505 -0.6445842,-0.621216 0.03581,-0.03654 0.07162,-0.109626 0.107431,-0.18271 0.214861,-0.401965 0.03581,-0.80392805 0.03581,-0.84047005 -0.03581,-0.07308 -0.107431,-0.109626 -0.179051,-0.109626 -0.07162,0 -0.143241,0.07308 -0.143241,0.18271 0,0 0,0.25579505 -0.143241,0.47504805 -0.03581,0.07308 -0.07162,0.109626 -0.143241,0.146168 -0.250671,-0.146168 -0.537153,-0.255795 -0.823634,-0.365421 0.03581,-0.07308 0.03581,-0.14616805 0.07162,-0.21925305 0.07162,-0.438505 -0.2506713,-0.767385 -0.2506713,-0.767385 -0.07162,-0.07308 -0.143241,-0.07308 -0.214862,-0.03654 -0.07162,0.03654 -0.10743,0.146169 -0.10743,0.219254 0,0 0.07162,0.255794 0.03581,0.475047 0,0.07308 -0.03581,0.146168 -0.07162,0.182711 -0.286482,-0.03654 -0.608774,-0.07308 -0.895256,-0.03654 0,-0.07308 0,-0.146168 -0.03581,-0.219252 -0.07162,-0.438506 -0.465532,-0.621217 -0.501343,-0.621217 -0.07162,-0.03654 -0.1432402,0 -0.2148612,0.03654 -0.03581,0.07308 -0.03581,0.146169 0,0.219254 0,0 0.143241,0.219252 0.2148612,0.475047 0,0.07308 0,0.146169 0,0.182711 C 3.85855,1.0106365 3.572068,1.0837245 3.285586,1.2298935 3.249776,1.1568135 3.249776,1.1202665 3.213966,1.0471825 2.999105,0.64521945 2.533572,0.64521945 2.533572,0.64521945 c -0.07162,0 -0.1432411,0.03654 -0.1790511,0.146168 -0.03581,0.07308 0,0.146169 0.07162,0.21925305 0,0 0.2148621,0.146168 0.3581031,0.365421 0.03581,0.07308 0.07162,0.109626 0.07162,0.146169 -0.250672,0.146169 -0.4655331,0.365422 -0.6803941,0.548132 -0.03581,-0.03654 -0.107431,-0.109626 -0.1432411,-0.146168 -0.3581019,-0.292337 -0.7520141,-0.182711 -0.7878244,-0.182711 -0.07162,0.03654 -0.1432409,0.109627 -0.1432409,0.182711 0,0.07308 0.07162,0.146168 0.1432409,0.18271 0,0 0.2506715,0.07309 0.4297225,0.219253 0.071621,0.07308 0.1074309,0.146168 0.1432409,0.182711 -0.1790511,0.255794 -0.3222919,0.511589 -0.4655327,0.767385 -0.07162,-0.03654 -0.143241,-0.07308 -0.2148614,-0.109626 -0.4297224,-0.219254 -0.78782455,0.07308 -0.78782455,0.07308 -0.07162,0.03654 -0.07162,0.146168 -0.03581,0.219253 0.03581,0.07308 0.1074306,0.109626 0.17905102,0.109626 0,0 0.28648173,-0.03654 0.50134295,0.03654 0.07162,0.03654 0.14324078,0.07308 0.17905098,0.109626 -0.1074306,0.292337 -0.1432408,0.584674 -0.17905098,0.877011 -0.07162,0 -0.14324082,-0.03654 -0.25067142,-0.03654 -0.46553277,0 -0.68039399,0.365422 -0.7162042,0.365422 -0.03581,0.07308 -0.03581,0.146169 0,0.219253 0.07162001,0.07308 0.14324082,0.07308 0.21486123,0.03654 0,0 0.21486122,-0.146169 0.46553277,-0.146169 0.07162,0 0.17905102,0 0.25067142,0.03654 0,0.292337 0.03581,0.584673 0.10743058,0.87701 -0.07162,0 -0.17905098,0.03654 -0.2506714,0.07309 -0.42972255,0.146168 -0.53715317,0.584674 -0.53715317,0.621217 0,0.07308 0,0.146168 0.07162,0.18271 0.07162,0.03654 0.14324082,0.03654 0.21486122,-0.03654 0,0 0.17905113,-0.182711 0.42972255,-0.292337 0.1074306,-0.03654 0.179051,-0.03654 0.2506715,-0.03654 0.1074307,0.255795 0.2506715,0.548132 0.4297225,0.767384 -0.07162,0.03654 -0.1432408,0.07308 -0.2148612,0.146169 -0.322292,0.292337 -0.2864818,0.730843 -0.2864818,0.730843 0,0.07308 0.07162,0.146169 0.143241,0.146169 0.07162,0 0.1432408,-0.03654 0.179051,-0.109627 0,0 0.1074306,-0.255795 0.2864821,-0.401964 0.10743,-0.07308 0.179051,-0.109626 0.214861,-0.109626 0.1074311,0.146168 0.2506711,0.255795 0.3939121,0.401964 0.07162,0.07308 0.1790511,0.146168 0.2506721,0.219253 -0.03581,0.07308 -0.107431,0.146168 -0.1432411,0.219252 -0.214861,0.401963 -0.03581,0.803927 -0.03581,0.840469 0.03581,0.07308 0.1074301,0.109627 0.1790511,0.109627 0.07162,0 0.143241,-0.07308 0.143241,-0.182711 0,0 0,-0.255795 0.14324,-0.475048 0.07162,-0.109626 0.107431,-0.146168 0.179051,-0.18271 0.143241,0.07308 0.322292,0.146168 0.465533,0.219252 0.107431,0.03654 0.214861,0.07308 0.358102,0.109627 -0.03581,0.07308 -0.03581,0.146168 -0.07162,0.255794 -0.07162,0.438507 0.250671,0.767386 0.250671,0.767386 0.07162,0.07308 0.1432412,0.07308 0.2148612,0.03654 0.07162,-0.03654 0.107431,-0.146169 0.07162,-0.219253 0,0 -0.07162,-0.255795 -0.03581,-0.475048 0.03581,-0.109627 0.07162,-0.182711 0.10743,-0.219253 0.179051,0.03654 0.393912,0.03654 0.572963,0.03654 0.03581,0 0.143241,0 0.322292,0 0,0.07308 0,0.146169 0.03581,0.219253 0.07162,0.401964 0.393912,0.657759 0.393912,0.657759 C 5.8281092,10 5.8639192,10 5.8997292,10 c 0.03581,0 0.07162,0 0.107431,-0.036539 0.07162,-0.03654 0.07162,-0.146169 0.03581,-0.219253 0,0 -0.10743,-0.255795 -0.179051,-0.51159 0,-0.109627 0,-0.182711 0,-0.255795 0.2148613,-0.03654 0.4297233,-0.109627 0.6445843,-0.182711 0.07162,-0.03654 0.143241,-0.07308 0.179051,-0.07308 0.03581,0.07308 0.07162,0.146168 0.107431,0.255795 0.214861,0.401963 0.680393,0.401963 0.680393,0.401963 0.07162,0 0.143241,-0.03654 0.179052,-0.146168 0.03581,-0.07308 0,-0.146169 -0.07162,-0.219253 0,0 -0.214861,-0.146169 -0.358102,-0.365421 -0.03581,-0.07308 -0.07162,-0.146169 -0.07162,-0.219253 0.250671,-0.146168 0.465532,-0.328879 0.680394,-0.548132 0.03581,0.07308 0.10743,0.146169 0.179051,0.182711 0.3581022,0.292337 0.7520142,0.182711 0.7878242,0.182711 0.07162,-0.03654 0.143241,-0.109627 0.143241,-0.182711 0,-0.07308 -0.07162,-0.146169 -0.143241,-0.182711 0,0 -0.250671,-0.07308 -0.429722,-0.219253 -0.07162,-0.07308 -0.107431,-0.146169 -0.143241,-0.182711 0.179051,-0.219253 0.322292,-0.475047 0.465532,-0.767384 0.07162,0.03654 0.143241,0.07308 0.214862,0.109626 0.429722,0.182711 0.787824,-0.109626 0.787824,-0.146168 0.07162,-0.03654 0.07162,-0.146169 0.03581,-0.219253 -0.03581,-0.07308 -0.10743,-0.109626 -0.179051,-0.109626 0,0 -0.286481,0.03654 -0.501342,-0.03654 -0.107431,-0.03654 -0.143241,-0.07308 -0.214862,-0.109626 0.07162,-0.255795 0.143241,-0.548132 0.179051,-0.877011 0.07162,0 0.179051,0.03654 0.250672,0.03654 0.429722,0 0.680394,-0.365422 0.680394,-0.365422 0.07162,0 0.07162,-0.07308 1e-6,-0.146168 z"
   id="path4"
   inkscape:connector-curvature="0"
   style="fill:#51565f;stroke-width:1.00000048;stroke-miterlimit:4;stroke-dasharray:none" />
</svg>