<?xml version="1.0" encoding="UTF-8" standalone="no"?>
<!-- Generator: Adobe Illustrator 22.0.0, SVG Export Plug-In . SVG Version: 6.00 Build 0)  -->

<svg
   xmlns:dc="http://purl.org/dc/elements/1.1/"
   xmlns:cc="http://creativecommons.org/ns#"
   xmlns:rdf="http://www.w3.org/1999/02/22-rdf-syntax-ns#"
   xmlns:svg="http://www.w3.org/2000/svg"
   xmlns="http://www.w3.org/2000/svg"
   xmlns:sodipodi="http://sodipodi.sourceforge.net/DTD/sodipodi-0.dtd"
   xmlns:inkscape="http://www.inkscape.org/namespaces/inkscape"
   version="1.1"
   x="0px"
   y="0px"
   viewBox="0 0 127 38.099999"
   xml:space="preserve"
   id="svg82"
   sodipodi:docname="Vidrodžennia-Logos-Horizontal-16.svg"
   width="127"
   height="38.099998"
   inkscape:export-filename="/home/nr/ongoing/sites_graph/Vidrodžennia-Logos-Horizontal-16.png"
   inkscape:export-xdpi="400"
   inkscape:export-ydpi="400"
   inkscape:version="0.92.3 (d244b95, 2018-08-02)"><metadata
   id="metadata88"><rdf:RDF><cc:Work
       rdf:about=""><dc:format>image/svg+xml</dc:format><dc:type
         rdf:resource="http://purl.org/dc/dcmitype/StillImage" /><dc:title></dc:title></cc:Work></rdf:RDF></metadata><defs
   id="defs86" /><sodipodi:namedview
   pagecolor="#ffffff"
   bordercolor="#666666"
   borderopacity="1"
   objecttolerance="10"
   gridtolerance="10"
   guidetolerance="10"
   inkscape:pageopacity="0"
   inkscape:pageshadow="2"
   inkscape:window-width="1627"
   inkscape:window-height="1026"
   id="namedview84"
   showgrid="false"
   inkscape:pagecheckerboard="true"
   fit-margin-top="0"
   fit-margin-left="0"
   fit-margin-right="0"
   fit-margin-bottom="0"
   inkscape:zoom="1.5843733"
   inkscape:cx="64.550002"
   inkscape:cy="19.050001"
   inkscape:window-x="53"
   inkscape:window-y="24"
   inkscape:window-maximized="1"
   inkscape:current-layer="svg82" />
<style
   type="text/css"
   id="style2">
	.st0{fill:#FFFFFF;}
</style>
<g
   id="Logo_Grid"
   transform="translate(-27.6,-19)"
   inkscape:export-xdpi="400"
   inkscape:export-ydpi="400">
</g>
<g
   id="Layer_4"
   transform="translate(-27.6,-19)"
   inkscape:export-xdpi="400"
   inkscape:export-ydpi="400">
</g>
<g
   id="Layer_1"
   transform="translate(-27.6,-19)"
   inkscape:export-xdpi="400"
   inkscape:export-ydpi="400">
	<g
   id="g78">
		<g
   id="g58">
			<path
   class="st0"
   d="m 69.1,20.8 h 1.2 l 1.9,5.4 h 0.1 l 1.8,-5.4 h 1.2 l 1.7,6.9 h -1 l -1.4,-5.6 h -0.1 l -2,5.8 h -0.7 l -2.1,-5.8 h -0.1 l -1.4,5.6 h -1 z"
   id="path6"
   inkscape:connector-curvature="0"
   style="fill:#ffffff" />
			<path
   class="st0"
   d="m 78.1,20.8 h 1 v 6.9 h -1 z"
   id="path8"
   inkscape:connector-curvature="0"
   style="fill:#ffffff" />
			<path
   class="st0"
   d="m 84.5,20.8 h 0.9 v 3.4 h 0.1 l 2.9,-3.4 h 1.2 l -3.1,3.5 3.3,3.4 h -1.2 l -3.1,-3.2 h -0.1 v 3.2 h -0.9 v -3.2 h -0.1 l -3.1,3.2 h -1.2 l 3.3,-3.4 -3.1,-3.5 h 1.2 l 2.9,3.4 h 0.1 z"
   id="path10"
   inkscape:connector-curvature="0"
   style="fill:#ffffff" />
			<path
   class="st0"
   d="m 91.8,20.8 v 3 h 4.7 v -3 h 1 v 6.9 h -1 v -3.1 h -4.7 v 3.1 h -1 v -6.9 z"
   id="path12"
   inkscape:connector-curvature="0"
   style="fill:#ffffff" />
			<path
   class="st0"
   d="m 103.9,26 h -3.6 l -0.7,1.7 h -1 l 2.9,-6.9 h 1.1 l 3,6.9 h -1 z m -3.3,-0.8 h 3 l -1.5,-3.5 H 102 Z"
   id="path14"
   inkscape:connector-curvature="0"
   style="fill:#ffffff" />
			<path
   class="st0"
   d="m 106.8,20.8 h 2.5 c 1.6,0 3.1,0.7 3.1,2.1 0,1.5 -1.5,2.2 -3.1,2.2 h -1.5 v 2.6 h -1 z m 0.9,3.5 h 1.5 c 1,0 2.1,-0.3 2.1,-1.3 0,-1 -1.1,-1.3 -2.1,-1.3 h -1.6 v 2.6 z"
   id="path16"
   inkscape:connector-curvature="0"
   style="fill:#ffffff" />
			<path
   class="st0"
   d="m 121.2,24.3 c 0,2.3 -1.9,3.6 -3.9,3.6 -2.1,0 -3.9,-1.4 -3.9,-3.6 0,-2 1.6,-3.7 3.9,-3.7 2.3,0 3.9,1.7 3.9,3.7 z m -6.9,0 c 0,1.6 1.2,2.8 2.9,2.8 1.7,0 2.9,-1.2 2.9,-2.8 0,-1.8 -1.4,-2.9 -2.9,-2.9 -1.5,0 -2.9,1 -2.9,2.9 z"
   id="path18"
   inkscape:connector-curvature="0"
   style="fill:#ffffff" />
			<path
   class="st0"
   d="m 122,26.9 c 0.6,0 1.1,-0.3 1.2,-1.6 l 0.5,-4.5 h 4.7 v 6.1 h 1 v 2.2 h -0.9 v -1.3 h -5.7 V 29 h -0.9 v -2.2 h 0.1 z m 5.4,-5.3 h -2.9 l -0.4,3.8 c -0.1,0.7 -0.3,1.2 -0.6,1.5 h 3.8 v -5.3 z"
   id="path20"
   inkscape:connector-curvature="0"
   style="fill:#ffffff" />
			<path
   class="st0"
   d="m 131.4,20.8 v 3 h 4.7 v -3 h 1 v 6.9 h -1 v -3.1 h -4.7 v 3.1 h -1 v -6.9 z"
   id="path22"
   inkscape:connector-curvature="0"
   style="fill:#ffffff" />
			<path
   class="st0"
   d="M 145.9,27.7 H 145 V 22 h -0.1 l -5.1,5.7 h -1 v -6.9 h 0.9 v 5.7 h 0.1 l 5.1,-5.7 h 1 z"
   id="path24"
   inkscape:connector-curvature="0"
   style="fill:#ffffff" />
			<path
   class="st0"
   d="m 154.6,27.7 h -0.9 V 22 h -0.1 l -5.1,5.7 h -1 v -6.9 h 0.9 v 5.7 h 0.1 l 5.1,-5.7 h 1 z M 152,19 h 0.6 c 0,0.8 -0.6,1.4 -1.5,1.4 -0.9,0 -1.5,-0.6 -1.5,-1.4 h 0.6 c 0,0.2 0.2,0.7 0.9,0.7 0.7,0 0.9,-0.5 0.9,-0.7 z"
   id="path26"
   inkscape:connector-curvature="0"
   style="fill:#ffffff" />
			<path
   class="st0"
   d="m 71.1,42.4 v -1.1 c -1.8,-0.1 -3.7,-1.1 -3.7,-3 0,-1.8 1.8,-2.9 3.7,-3 v -1 H 72 v 1 c 2,0.2 3.7,1.4 3.7,3 0,1.7 -1.6,2.8 -3.7,3 v 1.1 z m 0,-2 V 36 c -1.6,0.1 -2.7,0.9 -2.7,2.2 0,1.4 1.2,2.1 2.7,2.2 z M 72,36.1 v 4.3 c 1.5,-0.1 2.7,-0.9 2.7,-2.1 0,-1.3 -1.2,-2.1 -2.7,-2.2 z"
   id="path28"
   inkscape:connector-curvature="0"
   style="fill:#ffffff" />
			<path
   class="st0"
   d="m 84.6,38.3 c 0,2.3 -1.9,3.6 -3.9,3.6 -2.1,0 -3.9,-1.4 -3.9,-3.6 0,-2 1.6,-3.7 3.9,-3.7 2.3,0 3.9,1.7 3.9,3.7 z m -6.9,0 c 0,1.6 1.2,2.8 2.9,2.8 1.7,0 2.9,-1.2 2.9,-2.8 0,-1.8 -1.4,-2.9 -2.9,-2.9 -1.5,0 -2.9,1.1 -2.9,2.9 z"
   id="path30"
   inkscape:connector-curvature="0"
   style="fill:#ffffff" />
			<path
   class="st0"
   d="m 86.8,34.8 v 3 h 4.7 v -3 h 1 v 6.9 h -1 v -3.1 h -4.7 v 3.1 h -1 v -6.9 z"
   id="path32"
   inkscape:connector-curvature="0"
   style="fill:#ffffff" />
			<path
   class="st0"
   d="m 94,40.9 c 0.6,0 1.1,-0.3 1.2,-1.6 l 0.5,-4.5 h 4.7 v 6.1 h 1 v 2.2 h -0.9 v -1.3 h -5.7 v 1.3 h -0.9 v -2.2 z m 5.4,-5.3 h -2.9 l -0.4,3.8 c -0.1,0.7 -0.3,1.2 -0.6,1.5 h 3.8 v -5.3 z"
   id="path34"
   inkscape:connector-curvature="0"
   style="fill:#ffffff" />
			<path
   class="st0"
   d="m 67.8,48.8 h 2.3 c 1.6,0 2.9,0.6 2.9,1.8 0,0.9 -0.9,1.4 -1.3,1.5 v 0.1 c 0.4,0.1 1.5,0.5 1.5,1.6 0,1.2 -1.4,1.9 -3,1.9 h -2.5 v -6.9 z m 0.9,3.1 h 1.4 c 0.8,0 1.9,-0.2 1.9,-1.1 0,-0.9 -1,-1.1 -2,-1.1 h -1.4 v 2.2 z m 0,3.1 h 1.6 c 1.1,0 2,-0.4 2,-1.2 0,-0.8 -1,-1.1 -1.9,-1.1 H 68.8 V 55 Z"
   id="path36"
   inkscape:connector-curvature="0"
   style="fill:#ffffff" />
			<path
   class="st0"
   d="m 74.6,48.8 h 1 v 6.9 h -1 z"
   id="path38"
   inkscape:connector-curvature="0"
   style="fill:#ffffff" />
			<path
   class="st0"
   d="m 77,54.9 c 0.6,0 1.1,-0.3 1.2,-1.6 l 0.5,-4.5 h 4.7 v 6.1 h 1 v 2.2 h -0.9 v -1.3 h -5.7 v 1.3 h -0.9 v -2.2 z m 5.4,-5.3 h -2.9 l -0.4,3.8 c -0.1,0.7 -0.3,1.2 -0.6,1.5 h 3.8 v -5.3 z"
   id="path40"
   inkscape:connector-curvature="0"
   style="fill:#ffffff" />
			<path
   class="st0"
   d="M 85.5,48.8 H 88 c 1.6,0 3.1,0.7 3.1,2.1 0,1.4 -1.5,2.2 -3.1,2.2 h -1.5 v 2.6 h -1 z m 1,3.5 H 88 c 1,0 2.1,-0.3 2.1,-1.3 0,-1 -1.1,-1.3 -2.1,-1.3 h -1.6 v 2.6 z"
   id="path42"
   inkscape:connector-curvature="0"
   style="fill:#ffffff" />
			<path
   class="st0"
   d="m 99.9,52.3 c 0,2.3 -1.9,3.6 -3.9,3.6 -2.1,0 -3.9,-1.4 -3.9,-3.6 0,-2 1.6,-3.7 3.9,-3.7 2.3,0 3.9,1.7 3.9,3.7 z m -6.8,0 c 0,1.6 1.2,2.8 2.9,2.8 1.7,0 2.9,-1.2 2.9,-2.8 0,-1.8 -1.4,-2.9 -2.9,-2.9 -1.6,0 -2.9,1.1 -2.9,2.9 z"
   id="path44"
   inkscape:connector-curvature="0"
   style="fill:#ffffff" />
			<path
   class="st0"
   d="m 100.7,54.9 c 0.6,0 1.1,-0.3 1.2,-1.6 l 0.5,-4.5 h 4.7 v 6.1 h 1 v 2.2 h -0.9 v -1.3 h -5.7 v 1.3 h -0.9 v -2.2 z m 5.4,-5.3 h -2.9 l -0.4,3.8 c -0.1,0.7 -0.3,1.2 -0.6,1.5 h 3.8 v -5.3 z"
   id="path46"
   inkscape:connector-curvature="0"
   style="fill:#ffffff" />
			<path
   class="st0"
   d="m 113.3,48.8 h 0.9 v 3.4 h 0.1 l 2.9,-3.4 h 1.2 l -3.1,3.5 3.3,3.4 h -1.2 l -3.1,-3.2 h -0.1 v 3.2 h -0.9 v -3.2 h -0.1 l -3.1,3.2 h -1.2 l 3.3,-3.4 -3.1,-3.5 h 1.2 l 2.9,3.4 h 0.1 z"
   id="path48"
   inkscape:connector-curvature="0"
   style="fill:#ffffff" />
			<path
   class="st0"
   d="m 119.7,48.8 h 5.5 v 0.8 h -4.6 v 2.2 h 4.4 v 0.8 h -4.4 v 2.3 h 4.7 v 0.8 h -5.7 v -6.9 z"
   id="path50"
   inkscape:connector-curvature="0"
   style="fill:#ffffff" />
			<path
   class="st0"
   d="m 127.5,48.8 v 3 h 4.7 v -3 h 1 v 6.9 h -1 v -3.1 h -4.7 v 3.1 h -1 v -6.9 z"
   id="path52"
   inkscape:connector-curvature="0"
   style="fill:#ffffff" />
			<path
   class="st0"
   d="m 135.8,48.8 v 3 h 4.7 v -3 h 1 v 6.9 h -1 v -3.1 h -4.7 v 3.1 h -1 v -6.9 z"
   id="path54"
   inkscape:connector-curvature="0"
   style="fill:#ffffff" />
			<path
   class="st0"
   d="m 148.7,55.7 h -0.9 v -3 h -1.5 c -1.3,1.6 -2.5,3 -2.5,3 h -1.2 c 0,0 1.5,-1.6 2.7,-3.1 -1.1,-0.2 -2,-0.9 -2,-1.9 0,-1.4 1.6,-1.9 2.9,-1.9 h 2.6 v 6.9 z m -0.9,-6.1 h -1.7 c -0.9,0 -1.9,0.3 -1.9,1.2 0,0.8 0.9,1.1 1.9,1.1 h 1.7 z"
   id="path56"
   inkscape:connector-curvature="0"
   style="fill:#ffffff" />
		</g>
		<g
   id="g74">
			<path
   class="st0"
   d="m 37.2,55.7 h -9.6 v -35 h 9.6 z m -8.8,-0.8 h 8 V 21.6 h -8 z"
   id="path60"
   inkscape:connector-curvature="0"
   style="fill:#ffffff" />
			<path
   class="st0"
   d="m 47.3,56.1 c -4.7,0 -8.5,-3.8 -8.5,-8.5 0,-4.7 3.8,-8.5 8.5,-8.5 4.7,0 8.5,3.8 8.5,8.5 0,4.7 -3.8,8.5 -8.5,8.5 z m 0,-16.2 c -4.2,0 -7.7,3.4 -7.7,7.7 0,4.3 3.4,7.7 7.7,7.7 4.3,0 7.7,-3.4 7.7,-7.7 0,-4.3 -3.4,-7.7 -7.7,-7.7 z"
   id="path62"
   inkscape:connector-curvature="0"
   style="fill:#ffffff" />
			<g
   id="g72">
				<path
   class="st0"
   d="m 47.3,37.4 c -4.7,0 -8.5,-3.8 -8.5,-8.5 0,-4.7 3.8,-8.5 8.5,-8.5 4.7,0 8.5,3.8 8.5,8.5 0,4.7 -3.8,8.5 -8.5,8.5 z m 0,-16.1 c -4.2,0 -7.7,3.4 -7.7,7.7 0,4.3 3.4,7.7 7.7,7.7 4.2,0 7.7,-3.4 7.7,-7.7 0,-4.3 -3.4,-7.7 -7.7,-7.7 z"
   id="path64"
   inkscape:connector-curvature="0"
   style="fill:#ffffff" />
				<path
   class="st0"
   d="m 47.3,34.8 c -3.3,0 -5.9,-2.6 -5.9,-5.9 0,-3.3 2.6,-5.9 5.9,-5.9 3.3,0 5.9,2.6 5.9,5.9 0,3.3 -2.6,5.9 -5.9,5.9 z m 0,-11 c -2.8,0 -5.1,2.3 -5.1,5.1 0,2.8 2.3,5.1 5.1,5.1 2.8,0 5.1,-2.3 5.1,-5.1 0,-2.8 -2.3,-5.1 -5.1,-5.1 z"
   id="path66"
   inkscape:connector-curvature="0"
   style="fill:#ffffff" />
				<path
   class="st0"
   d="m 47.3,32.2 c -1.8,0 -3.2,-1.4 -3.2,-3.2 0,-1.8 1.4,-3.2 3.2,-3.2 1.8,0 3.2,1.4 3.2,3.2 0,1.8 -1.4,3.2 -3.2,3.2 z m 0,-5.7 c -1.3,0 -2.4,1.1 -2.4,2.4 0,1.3 1.1,2.4 2.4,2.4 1.3,0 2.4,-1.1 2.4,-2.4 0,-1.3 -1,-2.4 -2.4,-2.4 z"
   id="path68"
   inkscape:connector-curvature="0"
   style="fill:#ffffff" />
				<path
   class="st0"
   d="m 47.3,29.6 c -0.4,0 -0.7,-0.3 -0.7,-0.7 0,-0.4 0.3,-0.7 0.7,-0.7 0.4,0 0.7,0.3 0.7,0.7 0,0.4 -0.3,0.7 -0.7,0.7 z m 0,-0.8 c -0.1,0 -0.1,0.1 -0.1,0.1 0,0.2 0.3,0.2 0.3,0 0,0 -0.1,-0.1 -0.2,-0.1 z"
   id="path70"
   inkscape:connector-curvature="0"
   style="fill:#ffffff" />
			</g>
		</g>
		<circle
   class="st0"
   cx="47.400002"
   cy="28.9"
   r="0.30000001"
   id="circle76"
   style="fill:#ffffff" />
	</g>
</g>
<g
   id="Layer_2"
   transform="translate(-27.6,-19)"
   inkscape:export-xdpi="400"
   inkscape:export-ydpi="400">
</g>
</svg>